<!--?xml version="1.0" standalone="no"?-->
              <svg id="sw-js-blob-svg" viewBox="0 0 100 100" xmlns="http://www.w3.org/2000/svg" version="1.1">
                    <defs> 
                        <linearGradient id="sw-gradient" x1="0" x2="1" y1="1" y2="0">
                            <stop id="stop1" stop-color="rgba(118, 167, 140, 1)" offset="0%"></stop>
                            <stop id="stop2" stop-color="rgba(255, 255, 255, 1)" offset="100%"></stop>
                        </linearGradient>
                    </defs>
                <path fill="none" d="M25.7,-26C33.5,-24.1,40.3,-16.2,38.9,-9.1C37.5,-1.9,28.1,4.4,22.8,12.8C17.5,21.1,16.4,31.5,11.6,34.2C6.9,36.9,-1.4,31.9,-10.7,28.7C-19.9,25.6,-30.1,24.5,-36.3,18.6C-42.4,12.8,-44.5,2.3,-41,-5.3C-37.4,-13,-28.1,-17.7,-20.3,-19.6C-12.5,-21.6,-6.3,-20.8,1.3,-22.4C8.9,-24,17.9,-28,25.7,-26Z" width="100%" height="100%" transform="translate(50 50)" stroke-width="1" style="transition: all 0.3s ease 0s;" stroke="rgba(118, 167, 140, 1)"></path>
              </svg>